<svg xmlns="http://www.w3.org/2000/svg"  viewBox="0 0 50 50" width="50px" height="50px" baseProfile="basic"><polygon fill="#ff9f40" points="34,37.124 32,38.279 32,40.588 33.348,41.367 29,41.166 17,34.238 10.498,27.02 8.498,28.174 8,29.041 14,37.124 21,42.32 27,44.63 34,44.053 35,43.475 35,45.785 37,46.939 39,45.785 39,40.011"/><path fill="#6189ff" d="M34,29.041V14.03l-4-6.928l-5-2.887l-5,0.577l-3,1.732l-3,4.041l4,2.309l2-2.309l3,1.732l2,3.464	l-3-1.732l-8,4.619v6.928l4,5.774l5,2.887l4-2.309l2,5.774l4-1.155l3-1.732L34,29.041z M25,26.155L25,26.155L23,25l-1-1.732v-2.309	l0,0l3,1.732V26.155z"/><polygon fill="#4460b3" points="19,25 22,23.268 22,20.959 19,22.691"/><rect width="3.464" height="2" x="19.268" y="24" fill="#4d6dcc" transform="rotate(-30 20.999 25)"/><polygon fill="#577be6" points="22,27.887 25,26.155 23,25 20,26.732"/><polygon fill="#577be6" points="25,19.226 25,15.762 22,14.03 19,15.762"/><polygon fill="#577be6" points="27,8.834 30,7.102 25,4.215 22,5.947"/><rect width="3.464" height="8" x="28.768" y="7.432" fill="#4d6dcc" transform="rotate(-30 30.499 11.434)"/><polygon fill="#4460b3" points="31,30.774 34,29.041 34,14.03 31,15.762"/><polygon fill="#4d6dcc" points="31,30.774 34,29.041 36,34.815 33,36.547"/><polygon fill="#5274d9" points="17,6.525 20,4.793 25,4.215 22,5.947"/><polygon fill="#d98736" points="15,35.392 17,34.238 29,41.166 27,42.321"/><polygon fill="#e68f3a" points="33.522,42.622 35.522,41.467 29,41.166 27,42.321"/><polygon fill="#bf7730" points="33.522,42.622 35.522,41.467 36,42.898 34,44.053"/><polygon fill="#cc7f33" points="15,35.392 17,34.238 10.498,27.02 8.498,28.174"/><polygon fill="#ff9f40" points="35,42.321 32,40.588 32,38.279 37,41.166 37,46.939 35,45.785"/><polygon fill="#e68f3a" points="32,38.279 34,37.124 39,40.011 37,41.166"/><polygon fill="#b36f2d" points="37,46.939 39,45.785 39,40.011 37,41.166"/></svg>